# xmcd
#
# Track frame offsets: 
#        150
#        16617
#        30991
#        48112
#        57891
#        69984
#        84320
#        99194
#        111454
#        132705
#        153715
#        164538
#        176973
#        198027
#        212722
#        230792
#
# Disc length: 3311 seconds
#
# Revision: 0
# Processed by: cddbd v1.5.2PL0 Copyright (c) Steve Scherf et al.
# Submitted via: ExactAudioCopy v0.95b4
#
DISCID=d30ced10
DTITLE=Townes van Zandt - Pancho and Lefty - The Collection
DYEAR=2006
DGENRE=Country
TTITLE0=Pancho and Lefty
TTITLE1=To Live Is To Fly
TTITLE2=Loretta
TTITLE3=Blue Ridge Mountains
TTITLE4=Tecumseh Valley
TTITLE5=White Freightliner Blues
TTITLE6=Cocaine Blues
TTITLE7=Kathleen
TTITLE8=For The sake Of The Song
TTITLE9=Brand New Companion
TTITLE10=Waitin' Round To Die
TTITLE11=Nothin'
TTITLE12=Sad Cinderella
TTITLE13=Turnstyled Junkpiled
TTITLE14=Rake
TTITLE15=Delta Momma Blues
EXTD=
EXTT0=
EXTT1=
EXTT2=
EXTT3=
EXTT4=
EXTT5=
EXTT6=
EXTT7=
EXTT8=
EXTT9=
EXTT10=
EXTT11=
EXTT12=
EXTT13=
EXTT14=
EXTT15=
PLAYORDER=
